<svg width="101" height="110" viewBox="0 0 101 110" fill="none" xmlns="http://www.w3.org/2000/svg">
<path fill-rule="evenodd" clip-rule="evenodd" d="M0.555328 77.132C-3.47891 60.3066 15.1419 47.7099 34.5345 34.591C49.9232 24.1808 65.798 13.4417 71.2241 0C79.5132 14.7653 84.2872 29.0236 86.0914 42.0001H81L80.9998 61.0001H72.9998V57.0001H67.9998V62.0001H70.9998V71.0001H51.9998V90.0001H41.9998V100H51.9998V103.26C45.2067 104.397 37.6278 103.946 29.4511 101.639C16.7163 98.0462 3.6405 89.9991 0.555328 77.132ZM29.4998 76C31.987 62.1827 41.1357 54.7803 49.8681 47.7148C56.9354 41.9965 63.7299 36.4989 66.4998 28.0001C65.5826 41.7583 57.0004 49.1111 47.3836 57.3504C41.2731 62.5855 34.7449 68.1785 29.4998 76Z" fill="#050505"/>
<path d="M61.9998 100.203C62.1448 100.136 62.2892 100.069 62.4331 100H61.9998V100.203Z" fill="#050505"/>
<path d="M90.9998 72.0001H101V82.0001H90.9998V72.0001Z" fill="#050505"/>
<path d="M90.9998 56.0001H95.9998V61.0001H90.9998V56.0001Z" fill="#050505"/>
<path d="M81 42.0001H86.0914V47.0001H81V42.0001Z" fill="#050505"/>
<path d="M51.9998 71.0001H61.9998V81.0001H51.9998V71.0001Z" fill="#050505"/>
<path d="M65.9998 86.0001H75.9998V96.0001H65.9998V86.0001Z" fill="#050505"/>
<path d="M73.9998 65.0001H86.9998V78.0001H73.9998V65.0001Z" fill="#050505"/>
<path d="M80.9998 82.0001H85.9998V87.0001H80.9998V82.0001Z" fill="#050505"/>
<path d="M51.9998 90.0001H61.9998V100H51.9998V90.0001Z" fill="#050505"/>
</svg>
