<svg width="584" height="110" viewBox="0 0 584 110" fill="none" xmlns="http://www.w3.org/2000/svg">
<g clip-path="url(#clip0_116_10)">
<path d="M512.938 85.2732L542.436 19.7236H554.422L584.013 85.2732H571.278L545.901 26.1849H550.77L525.487 85.2732H512.938ZM526.517 70.1031L529.794 60.5516H565.191L568.468 70.1031H526.517Z" fill="#4FD44B"/>
<path d="M453.715 85.2732V19.7236H480.684C486.49 19.7236 491.453 20.6601 495.573 22.5329C499.756 24.4057 502.971 27.0902 505.219 30.5861C507.466 34.0821 508.59 38.2336 508.59 43.0405C508.59 47.8475 507.466 51.999 505.219 55.4949C502.971 58.9285 499.756 61.5817 495.573 63.4545C491.453 65.2649 486.49 66.1702 480.684 66.1702H460.458L465.889 60.6453V85.2732H453.715ZM496.603 85.2732L480.029 61.488H493.045L509.713 85.2732H496.603ZM465.889 61.9563L460.458 56.1504H480.122C485.491 56.1504 489.518 54.9955 492.202 52.6857C494.949 50.3758 496.323 47.1608 496.323 43.0405C496.323 38.8579 494.949 35.6428 492.202 33.3954C489.518 31.148 485.491 30.0243 480.122 30.0243H460.458L465.889 24.0312V61.9563Z" fill="#4FD44B"/>
<path d="M423.812 85.2732V19.7236H435.986V85.2732H423.812Z" fill="#4FD44B"/>
<path d="M394.073 19.7236H406.247V85.2732H394.073V19.7236ZM360.175 85.2732H348.001V19.7236H360.175V85.2732ZM395.01 57.1805H359.145V46.7862H395.01V57.1805Z" fill="#4FD44B"/>
<path d="M310.306 86.209C305.312 86.209 300.661 85.3974 296.353 83.7743C292.108 82.0887 288.394 79.7477 285.21 76.7511C282.088 73.6922 279.654 70.1025 277.906 65.9823C276.158 61.862 275.284 57.3672 275.284 52.4978C275.284 47.6284 276.158 43.1336 277.906 39.0133C279.654 34.8931 282.12 31.3347 285.303 28.3381C288.487 25.2791 292.202 22.9381 296.447 21.315C300.692 19.6294 305.343 18.7866 310.4 18.7866C315.768 18.7866 320.669 19.723 325.101 21.5959C329.534 23.4063 333.279 26.1219 336.338 29.7428L328.472 37.1405C326.1 34.5809 323.447 32.6769 320.513 31.4283C317.579 30.1173 314.395 29.4618 310.961 29.4618C307.528 29.4618 304.375 30.0237 301.504 31.1474C298.694 32.2711 296.228 33.863 294.106 35.9231C292.046 37.9833 290.423 40.418 289.236 43.2272C288.113 46.0365 287.551 49.1267 287.551 52.4978C287.551 55.8689 288.113 58.9591 289.236 61.7684C290.423 64.5776 292.046 67.0123 294.106 69.0725C296.228 71.1326 298.694 72.7245 301.504 73.8482C304.375 74.9719 307.528 75.5338 310.961 75.5338C314.395 75.5338 317.579 74.9095 320.513 73.6609C323.447 72.35 326.1 70.3835 328.472 67.7615L336.338 75.2529C333.279 78.8113 329.534 81.5269 325.101 83.3997C320.669 85.2726 315.737 86.209 310.306 86.209Z" fill="#4FD44B"/>
<path d="M201.467 85.2732L230.965 19.7236H242.951L272.542 85.2732H259.806L234.429 26.1849H239.299L214.015 85.2732H201.467ZM215.045 70.1031L218.323 60.5516H253.72L256.997 70.1031H215.045Z" fill="#4FD44B"/>
<path d="M147 85.2732V19.7236H173.969C179.775 19.7236 184.738 20.6601 188.858 22.5329C193.041 24.4057 196.256 27.0902 198.503 30.5861C200.751 34.0821 201.874 38.2336 201.874 43.0405C201.874 47.8475 200.751 51.999 198.503 55.4949C196.256 58.9909 193.041 61.6753 188.858 63.5482C184.738 65.421 179.775 66.3574 173.969 66.3574H153.742L159.173 60.6453V85.2732H147ZM159.173 61.9563L153.742 56.0568H173.407C178.776 56.0568 182.803 54.9331 185.487 52.6857C188.234 50.3758 189.607 47.1608 189.607 43.0405C189.607 38.8579 188.234 35.6428 185.487 33.3954C182.803 31.148 178.776 30.0243 173.407 30.0243H153.742L159.173 24.0312V61.9563Z" fill="#4FD44B"/>
<path fill-rule="evenodd" clip-rule="evenodd" d="M0.555328 77.132C-3.47891 60.3066 15.1419 47.7099 34.5345 34.591C49.9232 24.1808 65.798 13.4417 71.2241 0C79.5132 14.7653 84.2872 29.0236 86.0914 42.0001H81L80.9998 61.0001H72.9998V57.0001H67.9998V62.0001H70.9998V71.0001H51.9998V90.0001H41.9998V100H51.9998V103.26C45.2067 104.397 37.6278 103.946 29.4511 101.639C16.7163 98.0462 3.6405 89.9991 0.555328 77.132ZM29.4998 76C31.987 62.1827 41.1357 54.7803 49.8681 47.7148C56.9354 41.9965 63.7299 36.4989 66.4998 28.0001C65.5826 41.7583 57.0004 49.1111 47.3836 57.3504C41.2731 62.5855 34.7449 68.1785 29.4998 76Z" fill="#4FD44B"/>
<path d="M61.9998 100.203C62.1448 100.136 62.2892 100.069 62.4331 100H61.9998V100.203Z" fill="#4FD44B"/>
<path d="M90.9998 72.0001H101V82.0001H90.9998V72.0001Z" fill="#4FD44B"/>
<path d="M90.9998 56.0001H95.9998V61.0001H90.9998V56.0001Z" fill="#4FD44B"/>
<path d="M81 42.0001H86.0914V47.0001H81V42.0001Z" fill="#4FD44B"/>
<path d="M51.9998 71.0001H61.9998V81.0001H51.9998V71.0001Z" fill="#4FD44B"/>
<path d="M65.9998 86.0001H75.9998V96.0001H65.9998V86.0001Z" fill="#4FD44B"/>
<path d="M73.9998 65.0001H86.9998V78.0001H73.9998V65.0001Z" fill="#4FD44B"/>
<path d="M80.9998 82.0001H85.9998V87.0001H80.9998V82.0001Z" fill="#4FD44B"/>
<path d="M51.9998 90.0001H61.9998V100H51.9998V90.0001Z" fill="#4FD44B"/>
</g>
<defs>
<clipPath id="clip0_116_10">
<rect width="584" height="110" fill="white"/>
</clipPath>
</defs>
</svg>
