<?xml version="1.0" encoding="UTF-8"?>
<svg id="Layer_10" data-name="Layer 10" xmlns="http://www.w3.org/2000/svg" viewBox="0 0 801 166">
  <defs>
    <style>
      .cls-1 {
        fill: #eca15d;
      }
    </style>
  </defs>
  <g id="Layer_3" data-name="Layer 3">
    <g>
      <path d="m222.94,123.42h-21.48c-11.44,0-19.81-7.95-19.81-18.83v-5.16h13.95v5.86c0,2.79,2.37,5.16,4.88,5.16h23.43c2.51,0,4.88-2.37,4.88-5.16v-10.46c0-8.23-16.46-5.44-26.78-5.72-11.3-.42-19.8-7.95-19.8-18.97v-9.07c0-10.88,8.37-18.83,19.8-18.83h19.8c11.44,0,19.81,7.95,19.81,18.83v5.3h-13.95v-6c0-2.79-2.37-5.16-4.88-5.16h-21.76c-2.51,0-4.88,2.37-4.88,5.16v10.6c0,8.23,16.46,5.44,26.78,5.58,11.16.28,19.8,7.95,19.8,18.97v9.07c0,10.88-8.37,18.83-19.8,18.83Z"/>
      <path d="m318.89,76.83l-17.85,17.71v28.59h-14.23v-28.59l-17.85-17.71c-4.18-4.04-5.3-7.25-5.3-12.97v-21.62h13.95v21.06c0,2.93,0,3.35,1.81,5.02l14.37,14.64,14.51-14.64c1.81-1.67,1.81-2.09,1.81-5.02v-21.06h14.09v21.62c0,5.72-1.12,8.93-5.3,12.97Z"/>
      <path d="m386.39,123.42h-21.48c-11.44,0-19.8-7.95-19.8-18.83v-5.16h13.95v5.86c0,2.79,2.37,5.16,4.88,5.16h23.43c2.51,0,4.88-2.37,4.88-5.16v-10.46c0-8.23-16.46-5.44-26.78-5.72-11.3-.42-19.8-7.95-19.8-18.97v-9.07c0-10.88,8.37-18.83,19.8-18.83h19.8c11.44,0,19.8,7.95,19.8,18.83v5.3h-13.95v-6c0-2.79-2.37-5.16-4.88-5.16h-21.76c-2.51,0-4.88,2.37-4.88,5.16v10.6c0,8.23,16.46,5.44,26.78,5.58,11.16.28,19.81,7.95,19.81,18.97v9.07c0,10.88-8.37,18.83-19.81,18.83Z"/>
      <path d="m463.12,123.14V42.24h14.5v67.92h36.26v12.97h-50.77Z"/>
      <path d="m594.78,123.14h-14.09v-25.52h-33.19v25.52h-14.09v-49.23c0-5.72.98-9.34,5.3-13.39l19.25-18.27h12.27l19.25,18.27c4.32,4.04,5.3,7.67,5.3,13.39v49.23Zm-14.09-48.54c0-2.93-.14-3.63-1.81-5.3l-14.92-14.78c-.7,1.12-14.65,14.78-14.65,14.78-1.67,1.67-1.81,2.37-1.81,5.3v10.74h33.19v-10.74Z"/>
      <path d="m656.14,123.14h-39.05V42.24h39.05c11.44,0,20.08,8.23,20.08,19.11v8.23c0,6.83-2.93,10.74-5.44,12.69,2.51,1.95,5.44,5.44,5.44,11.72v10.04c0,10.88-8.65,19.11-20.08,19.11Zm5.86-62.76c0-2.93-2.51-5.58-4.88-5.58h-26.22v21.06h24.83c5.02,0,6.28-1.53,6.28-6.42v-9.07Zm0,34.87c0-5.16-1.26-6.69-5.72-6.69h-25.38v22.18h26.22c2.37,0,4.88-2.65,4.88-5.58v-9.9Z"/>
      <path d="m738.42,123.42h-21.48c-11.44,0-19.8-7.95-19.8-18.83v-5.16h13.95v5.86c0,2.79,2.37,5.16,4.88,5.16h23.43c2.51,0,4.88-2.37,4.88-5.16v-10.46c0-8.23-16.46-5.44-26.78-5.72-11.3-.42-19.8-7.95-19.8-18.97v-9.07c0-10.88,8.37-18.83,19.8-18.83h19.8c11.44,0,19.8,7.95,19.8,18.83v5.3h-13.95v-6c0-2.79-2.37-5.16-4.88-5.16h-21.76c-2.51,0-4.88,2.37-4.88,5.16v10.6c0,8.23,16.46,5.44,26.78,5.58,11.16.28,19.81,7.95,19.81,18.97v9.07c0,10.88-8.37,18.83-19.81,18.83Z"/>
    </g>
    <path class="cls-1" d="m75.89,126.1l-16.6,22.85h103.34l-55.51-80.36c-.76-1.11-1.65-2.11-2.54-3.1V16h-30.25v49.55c-.91.98-1.79,1.98-2.54,3.04L14.79,148.94h32.54l41.7-58.98,15.94,23.51c2.92,4.25,6.64,9.7,9.03,12.88-4.25-.26-10.49-.26-15.8-.26h-22.32Z"/>
  </g>
</svg>