<?xml version="1.0" encoding="UTF-8"?>
<svg xmlns="http://www.w3.org/2000/svg" viewBox="0 0 680 412">
  <defs>
    <style>
      .cls-1 {
        fill: #eda25d;
      }

      .cls-2 {
        fill: #010101;
      }
    </style>
  </defs>
  <g id="Layer_10" data-name="Layer 10">
    <g id="Layer_3" data-name="Layer 3">
      <g>
        <path class="cls-2" d="m93,378.42h-21.48c-11.44,0-19.81-7.95-19.81-18.83v-5.16h13.95v5.86c0,2.79,2.37,5.16,4.88,5.16h23.43c2.51,0,4.88-2.37,4.88-5.16v-10.46c0-8.23-16.46-5.44-26.78-5.72-11.3-.42-19.8-7.95-19.8-18.97v-9.07c0-10.88,8.37-18.83,19.8-18.83h19.8c11.44,0,19.81,7.95,19.81,18.83v5.3h-13.95v-6c0-2.79-2.37-5.16-4.88-5.16h-21.76c-2.51,0-4.88,2.37-4.88,5.16v10.6c0,8.23,16.46,5.44,26.78,5.58,11.16.28,19.8,7.95,19.8,18.97v9.07c0,10.88-8.37,18.83-19.8,18.83Z"/>
        <path class="cls-2" d="m188.95,331.83l-17.85,17.71v28.59h-14.23v-28.59l-17.85-17.71c-4.18-4.04-5.3-7.25-5.3-12.97v-21.62h13.95v21.06c0,2.93,0,3.35,1.81,5.02l14.37,14.64,14.51-14.64c1.81-1.67,1.81-2.09,1.81-5.02v-21.06h14.09v21.62c0,5.72-1.12,8.93-5.3,12.97Z"/>
        <path class="cls-2" d="m256.45,378.42h-21.48c-11.44,0-19.8-7.95-19.8-18.83v-5.16h13.95v5.86c0,2.79,2.37,5.16,4.88,5.16h23.43c2.51,0,4.88-2.37,4.88-5.16v-10.46c0-8.23-16.46-5.44-26.78-5.72-11.3-.42-19.8-7.95-19.8-18.97v-9.07c0-10.88,8.37-18.83,19.8-18.83h19.8c11.44,0,19.8,7.95,19.8,18.83v5.3h-13.95v-6c0-2.79-2.37-5.16-4.88-5.16h-21.76c-2.51,0-4.88,2.37-4.88,5.16v10.6c0,8.23,16.46,5.44,26.78,5.58,11.16.28,19.81,7.95,19.81,18.97v9.07c0,10.88-8.37,18.83-19.81,18.83Z"/>
        <path class="cls-2" d="m333.17,378.14v-80.89h14.5v67.92h36.26v12.97h-50.77Z"/>
        <path class="cls-2" d="m464.83,378.14h-14.09v-25.52h-33.19v25.52h-14.09v-49.23c0-5.72.98-9.34,5.3-13.39l19.25-18.27h12.27l19.25,18.27c4.32,4.04,5.3,7.67,5.3,13.39v49.23Zm-14.09-48.54c0-2.93-.14-3.63-1.81-5.3l-14.92-14.78c-.7,1.12-14.65,14.78-14.65,14.78-1.67,1.67-1.81,2.37-1.81,5.3v10.74h33.19v-10.74Z"/>
        <path class="cls-2" d="m526.2,378.14h-39.05v-80.89h39.05c11.44,0,20.08,8.23,20.08,19.11v8.23c0,6.83-2.93,10.74-5.44,12.69,2.51,1.95,5.44,5.44,5.44,11.72v10.04c0,10.88-8.65,19.11-20.08,19.11Zm5.86-62.76c0-2.93-2.51-5.58-4.88-5.58h-26.22v21.06h24.83c5.02,0,6.28-1.53,6.28-6.42v-9.07Zm0,34.87c0-5.16-1.26-6.69-5.72-6.69h-25.38v22.18h26.22c2.37,0,4.88-2.65,4.88-5.58v-9.9Z"/>
        <path class="cls-2" d="m608.48,378.42h-21.48c-11.44,0-19.8-7.95-19.8-18.83v-5.16h13.95v5.86c0,2.79,2.37,5.16,4.88,5.16h23.43c2.51,0,4.88-2.37,4.88-5.16v-10.46c0-8.23-16.46-5.44-26.78-5.72-11.3-.42-19.8-7.95-19.8-18.97v-9.07c0-10.88,8.37-18.83,19.8-18.83h19.8c11.44,0,19.8,7.95,19.8,18.83v5.3h-13.95v-6c0-2.79-2.37-5.16-4.88-5.16h-21.76c-2.51,0-4.88,2.37-4.88,5.16v10.6c0,8.23,16.46,5.44,26.78,5.58,11.16.28,19.81,7.95,19.81,18.97v9.07c0,10.88-8.37,18.83-19.81,18.83Z"/>
      </g>
    </g>
  </g>
  <g id="Layer_20" data-name="Layer 20">
    <path class="cls-1" d="m317.34,225.57l-29.34,40.38h182.63l-98.11-142.01c-1.35-1.95-2.91-3.73-4.5-5.48V31h-53.45v87.57c-1.6,1.73-3.16,3.51-4.49,5.36l-100.71,142.01h57.51l73.7-104.22,28.17,41.55c5.16,7.51,11.74,17.13,15.96,22.76-7.51-.47-18.54-.47-27.92-.47h-39.45Z"/>
  </g>
</svg>